<svg height="800" width="800" xmlns="http://www.w3.org/2000/svg" viewBox="0 0 297 297" xml:space="preserve"><circle style="fill:#345065" cx="148.5" cy="148.5" r="148.5"/><path style="fill:#213947" d="M226.9 121.3 68.1 173.8 186.5 292c51.5-13.6 92-54.1 105.6-105.6l-65.2-65.2z"/><path style="fill:#fff" d="M148.5 90.2c-43.8 0-81.5 24-98 58.3 16.5 34.3 54.2 58.3 98 58.3s81.5-24 98-58.3c-16.5-34.3-54.2-58.3-98-58.3z"/><path style="fill:#edeceb" d="M148.5 90.2h-1v116.6h1c43.8 0 81.5-24 98-58.3-16.5-34.3-54.2-58.3-98-58.3z"/><circle style="fill:#9adad9" cx="148.5" cy="148.5" r="49.5"/><path style="fill:#80b7b4" d="M148.5 99h-1v99h1a49.5 49.5 0 0 0 0-99z"/><circle style="fill:#5d7486" cx="148.5" cy="148.5" r="23"/><path style="fill:#345065" d="M148.5 125.5h-1v46h1a23 23 0 1 0 0-46z"/><circle style="fill:#fff" cx="140.3" cy="140.3" r="8.3"/></svg>
