<svg height="800" width="800" xmlns="http://www.w3.org/2000/svg" viewBox="0 0 463 463" xml:space="preserve" fill="#fff"><path d="M259.5 280.4v-32.9a23.5 23.5 0 0 0-47 0v29.7c0 35.7-13.2 70-37.1 96.6l-33 36.7a7.5 7.5 0 0 0 11.2 10l33-36.6c26.3-29.4 40.9-67.3 40.9-106.7v-29.7a8.5 8.5 0 0 1 17 0v32.9c0 44-16.3 86.1-46 118.7l-32 35.4a7.5 7.5 0 0 0 11 10l32.2-35.3c32-35.3 49.8-81 49.8-128.8z"/><path d="M291.5 247.5a55.6 55.6 0 0 0-111 0v29.7c0 27.8-10.3 54.5-28.9 75.2l-23.4 26a7.5 7.5 0 0 0 11.1 10.1l23.4-26a127.3 127.3 0 0 0 32.8-85.3v-29.7a40.5 40.5 0 0 1 81 0v32.9a208 208 0 0 1-54.2 140.2L195 450.5a7.5 7.5 0 1 0 11.1 10l27.2-29.8a223 223 0 0 0 58-150.3v-32.9z"/><path d="M323.5 247.5a87.6 87.6 0 0 0-175 0v29.7c0 19.9-7.4 39-20.7 53.8l-21.1 23.5a7.5 7.5 0 0 0 11.1 10l21.2-23.4a95.3 95.3 0 0 0 24.5-64v-29.6a72.6 72.6 0 0 1 145 0v32.9A240 240 0 0 1 245.9 442l-7.5 8.3a7.5 7.5 0 0 0 11.1 10l7.5-8.2a255 255 0 0 0 66.5-171.8v-32.9z"/><path d="M116.5 247.5a7.5 7.5 0 1 0 15 0A104.4 104.4 0 0 1 221 144.1a7.5 7.5 0 0 0-2-14.9 119.5 119.5 0 0 0-102.5 118.3zM131.5 277.2a7.5 7.5 0 1 0-15 0c0 12-4.4 23.5-12.5 32.4l-18.8 20.9a7.5 7.5 0 1 0 11.2 10l18.8-20.8a63.4 63.4 0 0 0 16.3-42.5zM340.8 344.1c-4-1-8.2 1.4-9.2 5.4a272.4 272.4 0 0 1-10.2 31.2 7.5 7.5 0 1 0 14 5.6c4.2-10.8 7.8-21.9 10.7-33 1-4-1.3-8.1-5.3-9.2zM315.8 158.6a7.5 7.5 0 1 0-10 11.2c22 19.8 34.7 48.1 34.7 77.7v32.9c0 12.4-.9 25-2.6 37.3a7.5 7.5 0 1 0 14.9 2c1.8-13 2.7-26.2 2.7-39.3v-32.9c0-33.8-14.5-66.2-39.7-88.9zM280.7 153a7.5 7.5 0 0 0 10-3.5c1.8-3.7.2-8.2-3.5-10a118.5 118.5 0 0 0-34.2-10.3 7.5 7.5 0 0 0-2 14.9c10.3 1.5 20.3 4.5 29.7 9z"/><path d="M236 96c-2.8 0-5.7 0-8.5.2a7.5 7.5 0 1 0 .9 15l7.6-.2c75.2 0 136.5 61.2 136.5 136.5v32.9a7.5 7.5 0 1 0 15 0v-32.9C387.5 164 319.5 96 236 96zM154 136.7c1.4 0 3-.4 4.2-1.3A135.7 135.7 0 0 1 199 116a7.5 7.5 0 0 0-4-14.4 150.7 150.7 0 0 0-45.3 21.3 7.5 7.5 0 0 0 4.3 13.7zM99.5 277.2v-29.7a136 136 0 0 1 37.2-93.6 7.5 7.5 0 0 0-11-10.3 150.9 150.9 0 0 0-41.2 103.9v29.7c0 4-1.5 8-4.3 11L71 298.5a7.5 7.5 0 0 0 11.1 10l9.3-10.3c5.2-5.8 8-13.2 8-21zM410 189.1a182.5 182.5 0 0 0-38.9-65.6 7.5 7.5 0 1 0-11 10.1 167.6 167.6 0 0 1 35.6 60.3A7.5 7.5 0 0 0 410 189zM295.2 73.8a7.5 7.5 0 0 0-4.8 14.2 168 168 0 0 1 46.1 24.4 7.5 7.5 0 0 0 10.5-1.5c2.5-3.4 1.8-8-1.5-10.5a183 183 0 0 0-50.3-26.6z"/><path d="M119.4 126a167.7 167.7 0 0 1 140.8-45.3 7.5 7.5 0 1 0 2.1-14.8A182.6 182.6 0 0 0 109 115a182.6 182.6 0 0 0-56.3 124 7.5 7.5 0 1 0 15 .7c1.9-43.3 20.3-83.7 51.7-113.9z"/><path d="M236 32c-16.8 0-33.5 2-49.7 5.8a7.5 7.5 0 1 0 3.5 14.6 201 201 0 0 1 190.7 56.3 7.5 7.5 0 0 0 10.6.2c3-2.9 3.1-7.6.2-10.6A215.2 215.2 0 0 0 236 32zM67.5 125.4a7.5 7.5 0 0 0 10.5-1.3 201.8 201.8 0 0 1 81.4-62 7.5 7.5 0 0 0-5.7-13.8A216.8 216.8 0 0 0 66.2 115c-2.5 3.2-2 8 1.3 10.5zM132 38.7c1 0 2.2-.2 3.2-.7a229.8 229.8 0 0 1 155.2-16.6 7.5 7.5 0 0 0 3.5-14.6 247.8 247.8 0 0 0-165.2 17.7 7.5 7.5 0 0 0 3.3 14.2zM321.7 31.4c7.8 3 15.4 6.6 22.8 10.5a7.5 7.5 0 0 0 10.1-3.1c2-3.7.6-8.2-3.1-10.2-7.8-4.1-16-7.9-24.2-11.2a7.5 7.5 0 1 0-5.6 14z"/></svg>
